<svg xmlns="http://www.w3.org/2000/svg" width="160" height="20" viewBox="1 0 160 20" enable-background="new 1 0 160 20"><path d="M135.7 10.5c.7-.4 2.7-1.8 2.7-3.9 0-2.5-1.4-3.8-4.3-3.8h-3.5v7.7h5.1zM118.9 12.1l-3-7.2-3 7.2z" fill="none"/><path fill="#68B8BE" d="M37.2.2c-.7 0-1.3.6-1.3 1.3v5.1c0-.7.6-1.3 1.3-1.3.7 0 1.3.6 1.3 1.3V1.5c0-.7-.6-1.3-1.3-1.3zM81.4 8.4l-.2-.1c.7.2 1.1 1 .8 1.7-.2.5-.7.9-1.3.9-.1 0-.3 0-.4-.1l.2.1c2.2.7 4 1.5 4.2 3.1.1.9 0 1.6-.5 2.2-.7.8-2 1.2-3.6 1.2-2.7 0-4.1-1.7-4.2-1.8-.5-.6-1.3-.7-1.9-.2-.6.5-.7 1.3-.2 1.9.1.1 2.2 2.7 6.2 2.8h.2c2.3 0 4.3-.7 5.5-2.1 1-1.1 1.4-2.6 1.2-4.3-.5-3.4-3.8-4.5-6-5.3zM137.8 12.3c1.3-1 3.2-2.8 3.2-5.6 0-4.1-2.6-6.5-6.9-6.5h-4.9c.7 0 1.3.6 1.3 1.3v1.3h3.5c2.8 0 4.3 1.3 4.3 3.8 0 2.1-2 3.5-2.7 3.9h.3c.7 0 1.3.6 1.3 1.3 0 .7-.6 1.3-1.3 1.3h-.8l3.7 6.2c.2.4.7.6 1.1.6.2 0 .5-.1.7-.2.6-.4.8-1.2.5-1.8l-3.3-5.6zM6.4 9.2c.2-.7 1-1.1 1.7-.8-.2-.1-.3-.2-.5-.3-2-.6-3.5-1.2-3.6-2.5 0-.8.2-1.5.7-2 .6-.6 1.7-1 2.9-1 2.4 0 3.6 1.5 3.6 1.5.5.6 1.3.7 1.9.2.6-.5.7-1.3.2-1.9-.1-.1-2-2.5-5.7-2.6-2 0-3.8.6-4.9 1.8-1 1-1.5 2.4-1.3 4C1.6 9 4.8 10 6.7 10.7c.2.1.4.1.5.2-.6-.3-1-1-.8-1.7zM25.3 8.3l-1.9 1.9 6.3 9.1c.3.4.7.6 1.1.6.3 0 .5-.1.8-.2.6-.4.8-1.2.3-1.8l-6.6-9.6zM19.3 13.9c-.2 0-.3 0-.5-.1-.5-.2-.8-.7-.8-1.2v6.1c0 .7.6 1.3 1.3 1.3.7 0 1.3-.6 1.3-1.3v-5.5l-.4.4c-.2.2-.5.3-.9.3zM44.9 17.3h1.3V1.5c0-.7-.6-1.3-1.3-1.3-.7 0-1.3.6-1.3 1.3v17.1c0-.7.6-1.3 1.3-1.3zM70.2 17.3h-8.7v1.3c0 .7-.6 1.3-1.3 1.3h10c.7 0 1.3-.6 1.3-1.3 0-.7-.6-1.3-1.3-1.3zM102.2.2c-.7 0-1.3.6-1.3 1.3v7.3h-4.1c.7 0 1.3.6 1.3 1.3s-.6 1.3-1.3 1.3h4.1v7.2c0 .7.6 1.3 1.3 1.3.7 0 1.3-.6 1.3-1.3V1.5c.1-.7-.5-1.3-1.3-1.3zM115.2.4c.1 0 .1-.1.2-.1-.1 0-.2.1-.2.1zM115.8.2h.2-.2zM115.4.3c.1 0 .2-.1.3-.1-.1 0-.2 0-.3.1zM116.1.2zM115 .6l.1-.1c-.1 0-.1 0-.1.1zM116.4.3s.1 0 0 0c.1 0 0 0 0 0zM116.7.4zM117.1 1zM114.8.8c0-.1.1-.1 0 0 .1-.1 0-.1 0 0zM117 .8c0 .1.1.1.1.2 0-.1 0-.2-.1-.2zM116.9.6l.1.1-.1-.1zM118.9 12.1h-6l3-7.2-1.2-2.9c-.2-.4-.1-.8 0-1.1V1l-7.2 17.1c-.3.7 0 1.5.7 1.7.2.1.3.1.5.1.5 0 1-.3 1.2-.8l1.8-4.4h8.2l-1-2.6zM157.8 17.3h-9.2v-5.9h-1.3c-.7 0-1.3-.6-1.3-1.3v8.6c0 .7.6 1.3 1.3 1.3h10.5c.7 0 1.3-.6 1.3-1.3.1-.8-.5-1.4-1.3-1.4z"/><path fill="#F26B21" d="M8.3 8.4l-.2-.1c.7.2 1.1 1 .8 1.7-.2.5-.7.9-1.3.9-.1 0-.3 0-.4-.1l.2.1c2.2.7 4 1.5 4.2 3.1.1.9 0 1.6-.5 2.2-.7.8-2 1.2-3.6 1.2-2.7 0-4.1-1.7-4.2-1.8-.5-.6-1.3-.7-1.9-.2-.6.5-.7 1.3-.2 1.9.1.1 2.2 2.7 6.2 2.8h.2c2.3 0 4.3-.7 5.5-2.1 1-1.1 1.4-2.6 1.2-4.3-.5-3.4-3.8-4.5-6-5.3z"/><path fill="#875B35" d="M8.9 10c.2-.7-.1-1.5-.8-1.7-.7-.2-1.4.2-1.7.9-.2.7.1 1.5.8 1.7.1 0 .3.1.4.1.6-.1 1.2-.4 1.3-1z"/><path fill="#F26B21" d="M79.5 9.2c.2-.7 1-1.1 1.7-.8-.2-.1-.4-.1-.6-.2-1.9-.6-3.4-1.2-3.5-2.5-.1-.8.2-1.5.6-2 .6-.6 1.7-1 2.9-1 2.4 0 3.6 1.5 3.6 1.5.5.6 1.3.7 1.9.2.6-.5.7-1.3.2-1.9-.1-.1-2-2.5-5.7-2.6-2 0-3.8.6-4.9 1.8-1 1-1.5 2.4-1.3 4 .2 3.2 3.4 4.2 5.3 4.9.2.1.4.1.5.2-.6-.2-.9-.9-.7-1.6z"/><path fill="#875B35" d="M82 10c.2-.7-.1-1.5-.8-1.7-.7-.2-1.4.1-1.7.8-.2.7.1 1.5.8 1.7.1 0 .3.1.4.1.6 0 1.1-.3 1.3-.9z"/><path fill="#F26B21" d="M54.9 17.3h-8.7v1.3c0 .7-.6 1.3-1.3 1.3h10c.7 0 1.3-.6 1.3-1.3 0-.7-.6-1.3-1.3-1.3z"/><path fill="#875B35" d="M46.2 18.6v-1.3h-1.3c-.7 0-1.3.6-1.3 1.3 0 .7.6 1.3 1.3 1.3.7.1 1.3-.5 1.3-1.3z"/><path fill="#F26B21" d="M37.2 7.9c-.7 0-1.3-.6-1.3-1.3v12.1c0 .7.6 1.3 1.3 1.3.7 0 1.3-.6 1.3-1.3V6.6c0 .7-.6 1.3-1.3 1.3z"/><circle fill="#875B35" cx="37.2" cy="6.6" r="1.3"/><path fill="#F26B21" d="M60.2 17.3h1.3V1.5c0-.7-.6-1.3-1.3-1.3-.7 0-1.3.6-1.3 1.3v17.1c0-.7.6-1.3 1.3-1.3z"/><path fill="#875B35" d="M61.6 18.6v-1.3h-1.3c-.7 0-1.3.6-1.3 1.3 0 .7.6 1.3 1.3 1.3.7.1 1.3-.5 1.3-1.3z"/><circle fill="#875B35" cx="96.9" cy="10.1" r="1.3"/><path fill="#F26B21" d="M95.5 10.1c0-.7.6-1.3 1.3-1.3h-4.1V1.5c0-.7-.6-1.3-1.3-1.3s-1.3.6-1.3 1.3v17.1c0 .7.6 1.3 1.3 1.3s1.3-.6 1.3-1.3v-7.2h4.1c-.7.1-1.3-.5-1.3-1.3zM116.5.3c.1 0 .1.1.2.1-.1 0-.2-.1-.2-.1zM115.1.5c0-.1 0-.1 0 0 0-.1 0-.1 0 0zM116.9.7c.1 0 .1 0 0 0 .1 0 .1 0 0 0zM114.7.9c0-.1.1-.1.1-.2 0 .1 0 .2-.1.2zM114.9.7l.1-.1c-.1 0-.1 0-.1.1zM115.7.2h.1-.1zM117.1 1c.1.3.1.7 0 1l-1.2 2.9 3 7.2h1.6c.7 0 1.3.6 1.3 1.3 0 .7-.6 1.3-1.3 1.3h-.5l1.8 4.4c.2.5.7.8 1.2.8.2 0 .3 0 .5-.1.7-.3 1-1.1.7-1.7L117.1 1zM116.2.2c.1 0 .2 0 .3.1-.2-.1-.2-.1-.3-.1zM117.1 1s0-.1 0 0c0-.1 0 0 0 0zM116.7.5l.1.1c0-.1 0-.1-.1-.1zM115.9.2h.2-.2zM115.4.3z"/><path fill="#875B35" d="M121.9 13.4c0-.7-.6-1.3-1.3-1.3H119l1.1 2.7h.5c.7 0 1.3-.6 1.3-1.4zM114.7 2l1.2 2.9 1.2-2.9c.1-.3.1-.7 0-1V.9c0-.1-.1-.1-.1-.2l-.1-.1-.1-.1-.1-.1-.1-.1c-.1 0-.1-.1-.2-.1h-.1c-.1 0-.2-.1-.3-.1h-.6c-.1 0-.2 0-.3.1h-.1c-.1 0-.1.1-.2.1l-.1.1-.1.1-.1.1-.1.1s-.1.1-.1.2c.3.4.2.7.4 1.1z"/><path fill="#F26B21" d="M128.5 11.8c0-.7.6-1.3 1.3-1.3h.8V2.8h-1.3c-.7 0-1.3-.6-1.3-1.3v17.1c0 .7.6 1.3 1.3 1.3.7 0 1.3-.6 1.3-1.3v-5.5h-.8c-.7.1-1.3-.5-1.3-1.3z"/><path fill="#875B35" d="M129.3 2.8h1.3V1.5c0-.7-.6-1.3-1.3-1.3-.7 0-1.3.6-1.3 1.3-.1.7.5 1.3 1.3 1.3z"/><path fill="#F26B21" d="M134.7 11.5c.1-.4.4-.7.7-.8 0 0 .1 0 .2-.1h-5.1v2.7h4.7l-.4-.6c-.1-.5-.2-.9-.1-1.2z"/><path fill="#875B35" d="M137.3 11.8c0-.7-.6-1.3-1.3-1.3h-.3c-.1.1-.2.1-.2.1-.3.2-.6.5-.7.8-.1.4-.1.7.1 1.1l.4.6h.8c.7.1 1.2-.5 1.2-1.3z"/><path fill="#F26B21" d="M129.8 10.5c-.7 0-1.3.6-1.3 1.3 0 .7.6 1.3 1.3 1.3h.8v-2.7h-.8zM147.3 8.7c.7 0 1.3.6 1.3 1.3v1.3h7.7c.7 0 1.3-.6 1.3-1.3 0-.7-.6-1.3-1.3-1.3h-7.7V2.8h9.2c.7 0 1.3-.6 1.3-1.3 0-.7-.6-1.3-1.3-1.3h-10.5c-.7 0-1.3.6-1.3 1.3v8.6c0-.8.6-1.4 1.3-1.4z"/><path fill="#875B35" d="M147.3 11.4h1.3v-1.3c0-.7-.6-1.3-1.3-1.3-.7 0-1.3.6-1.3 1.3 0 .7.6 1.3 1.3 1.3z"/><path fill="#F26B21" d="M23.1 7.4c.6-.4 1.4-.3 1.8.3l.4.6 5.8-5.9c.5-.5.5-1.4 0-1.9s-1.4-.5-1.9 0l-8.6 8.8V1.5c0-.7-.6-1.3-1.3-1.3-.7 0-1.3.6-1.3 1.3v11.1c0-.7.6-1.3 1.3-1.3.7 0 1.3.6 1.3 1.3v.5l2.8-2.8-.7-1c-.4-.6-.2-1.5.4-1.9z"/><path fill="#875B35" d="M24.9 7.8c-.4-.6-1.2-.8-1.8-.3-.6.4-.8 1.2-.3 1.8l.7 1 1.9-1.9-.5-.6zM19.3 11.2c-.7 0-1.3.6-1.3 1.3 0 .5.3 1 .8 1.2.2.1.3.1.5.1.3 0 .7-.1.9-.4l.4-.4v-.5c.1-.7-.5-1.3-1.3-1.3z"/></svg>
